<?xml version="1.0" encoding="iso-8859-1"?>
<!-- Generator: Adobe Illustrator 22.0.1, SVG Export Plug-In . SVG Version: 6.00 Build 0)  -->
<svg version="1.1" xmlns="http://www.w3.org/2000/svg" xmlns:xlink="http://www.w3.org/1999/xlink" x="0px" y="0px"
	 viewBox="0 0 1920 1080" style="enable-background:new 0 0 1920 1080;" xml:space="preserve">
<g id="Layer_1">
	<g>
		<polygon style="fill:#1A1A1A;" points="1049.046,1440.739 1042.273,982.212 1037.547,1435.93 1032.826,1129.967 1028.1,1139.08 
			1023.375,1217.62 1018.652,1258.446 1013.93,1154.291 1009.209,1195.409 1004.486,1102.551 999.759,1154.421 995.033,1232.592 
			990.31,1295.788 985.587,1219.769 980.862,1300.999 976.134,1051.997 971.409,1419.121 966.684,1055.477 961.958,1416.71 
			957.23,1068.874 952.505,1397.742 947.779,1021.227 943.051,1315.495 938.325,1147.476 933.596,1441.9 928.869,1216.113 
			924.141,1354.188 919.413,981.24 914.684,1368.022 909.956,1000.869 905.227,1230.651 900.497,1032.339 895.768,1209.029 
			891.043,1066.463 886.314,1164.279 881.588,973.083 876.859,1265.232 872.129,1237.405 867.398,1367.332 862.668,1054.836 
			857.938,1406.716 853.208,1108.044 848.474,1290.383 843.737,1157.927 840.376,1190.197 819.698,1211.62 798.416,1238.804 
			799.91,1034.783 758.291,1232.546 782.249,986.478 734.349,1152.503 764.366,964.908 635.743,1362.31 690.064,1119.109 
			574.874,1377.856 613.301,1215.707 628.526,1132.232 606.682,1135.374 522.996,1249.141 677.645,944.207 500.704,1197.092 
			575.973,1050.199 541.037,1069.213 465.877,1133.932 528.122,1029.892 471.541,1065.688 383.334,1126.66 426.932,1054.646 
			371.476,1076.184 592.884,868.886 346.662,1039.684 376.463,992.149 200.813,1081.715 534.344,851.122 377.62,922.82 
			380.805,900.198 370.912,884.623 502.538,809.804 327.293,861.806 351.557,833.115 275.914,836.363 254.726,820.16 
			383.778,769.907 484.749,734.769 69.632,781.637 438.853,713.999 145.519,720.55 347.474,688.557 118.32,672.786 553.833,671.001 
			66.681,671.001 400.634,671.001 82.528,671.001 245.15,671.001 319.102,671.001 356.136,671 321.358,671 295.987,671 279.787,671 
			485.633,671 214.465,671 346.696,671 202.643,671 476.426,671 235.668,671 316.976,671 89.654,671 450.945,671 193.397,671 
			500.702,671 173.584,671 313.389,671 190.908,671 241.543,671 252.594,671 439.668,671 194.583,671 356.136,671 375.762,671 
			515.149,671 310.916,671 295.16,671 121.698,671 492.157,671 209.234,671 306.447,671 243.504,671 471.711,671 109.253,671 
			546.114,671 99.473,671 295.967,671 177.654,670.266 393.44,655.078 378.11,638.042 436.475,627.746 123.019,568.052 
			433.013,597.866 86.391,507.104 499.553,584.677 266.106,502.736 464.24,546.646 125.227,404.275 441.241,506.616 
			183.307,371.072 485.071,494.353 254.742,351.634 476.145,456.133 269.941,304.941 552.448,472.598 244.913,225.847 
			406.782,322.7 258.78,167.96 477.697,334.654 332.662,164.655 482.264,287.808 372.457,132.802 629.931,411.047 392.973,75.734 
			496.287,177.549 477.279,108.64 633.256,323.419 539.725,123.28 579.114,151.922 526.541,-11.953 680.707,287.828 
			670.357,218.285 722.962,321.045 627.715,-47.489 704.62,144.31 712.046,87.434 752.568,191.542 744.751,15.43 796.675,277.126 
			787.564,-48.916 818.075,84.745 839.438,83.075 843.727,172.309 848.452,-55.256 853.174,72.717 857.9,107.606 862.625,148.49 
			867.348,-4.449 872.07,278.104 876.791,171.791 881.514,290.577 886.241,106.002 890.967,324.594 895.69,183.69 900.413,367.254 
			905.138,-46.477 909.866,78.92 914.591,11.271 919.316,363.501 924.042,172.043 928.77,268.275 933.495,103.513 938.221,103.779 
			942.949,167.882 947.675,91.014 952.404,-86.814 957.131,104.1 961.859,-95.359 966.587,252.36 971.316,204.145 976.044,218.381 
			980.773,191.721 985.503,265.232 990.232,193.655 994.957,130.923 999.686,-6.909 1004.412,359.739 1009.141,72.413 
			1013.871,171.687 1018.602,-54.965 1023.332,345.788 1028.062,171.538 1032.792,135.103 1037.526,86.791 1042.263,356.54 
			1047.805,-7.905 1059.797,313.329 1092.19,38.632 1089.073,279.465 1120.644,158.51 1131.761,200.774 1161.317,145.266 
			1153.77,251.887 1246.917,-9.01 1161.632,325.249 1289.452,21.834 1206.57,284.779 1312.206,90.788 1289.519,186.39 
			1406.012,14.613 1338.132,180.381 1350.837,198.239 1209.894,435.353 1440.36,145.837 1413.321,216.484 1536.783,106.05 
			1429.836,259.812 1500.266,217.74 1330.607,407.072 1597.803,193.513 1313.803,456.394 1664.564,208.217 1485.057,366.926 
			1654.1,280.371 1415.033,453.048 1633.127,350.614 1459.435,464.867 1691.912,376.04 1364.54,540.091 1667.864,439.186 
			1416.249,548.496 1533.82,528.174 1555.299,541.34 1524.76,567.167 1349.745,616.554 1512.464,604.127 1516.397,620.558 
			1682.782,625.566 1593.77,651.479 1773.541,669.11 1347.411,670.999 1589.278,670.999 1630.885,670.999 1562.221,670.999 
			1554.869,670.999 1698.524,671 1601.417,671 1661.804,671 1426.227,670.999 1675.473,671 1597.616,671 1601.8,671 1413.015,671 
			1789.016,671 1619.549,671 1660.413,671 1616.973,671 1648.903,671 1399.375,671 1654.862,671 1403.964,671 1751.431,671 
			1380.748,671 1750.76,671 1512.403,671 1673.412,671 1518.625,671 1756.389,671 1577.812,671 1654.016,671 1413.705,671 
			1579.954,671 1446.041,671 1720.748,671 1632.139,671 1545.5,671 1426.869,671 1595.101,671 1442.016,671 1741.378,671 
			1577.55,671 1586.808,671 1418.566,671 1645.532,670.62 1539.206,688.581 1657.966,714.663 1369.16,705.616 1742.851,771.049 
			1331.875,722.212 1728.005,819.248 1394.809,759.469 1710.778,866.121 1449.276,804.576 1710.645,918.892 1334.975,789.576 
			1659.839,951.214 1411.112,852.78 1466.843,899.995 1547.002,967.732 1602.864,1028.533 1399.83,915.633 1530.186,1032.816 
			1483.135,1022.465 1539.67,1098.027 1434.135,1031.42 1473.553,1097.559 1423.375,1075.266 1476.111,1166.083 1279.963,960.518 
			1334.556,1055.374 1339.645,1092.671 1468.008,1325.118 1236.112,990.715 1279.639,1097.482 1292.328,1161.195 1345.572,1323.764 
			1267.748,1203.857 1302.241,1354.224 1146.807,972.524 1243.096,1338.089 1194.681,1249.511 1157.261,1178.175 1115.176,1049.598 
			1134.131,1277.138 1100.56,1169.405 1095.12,1344.437 1036.713,1107.436 		"/>
	</g>
</g>
<g id="Layer_2">
	<g>
	</g>
	<g>
	</g>
	<g>
	</g>
	<g>
	</g>
	<g>
	</g>
	<g>
	</g>
	<g>
	</g>
	<g>
	</g>
	<g>
	</g>
	<g>
	</g>
	<g>
	</g>
	<g>
	</g>
	<g>
	</g>
	<g>
	</g>
	<g>
	</g>
</g>
</svg>
